<mxfile host="app.diagrams.net" modified="2023-06-21T17:43:02.305Z" agent="Mozilla/5.0 (X11; Ubuntu; Linux x86_64; rv:109.0) Gecko/20100101 Firefox/113.0" etag="uEEwF-pHya-RT7muopBf" version="21.5.0" type="device">
  <diagram name="Page-1" id="qRLKTEqIeeb9t7-bzoMa">
    <mxGraphModel dx="2130" dy="615" grid="1" gridSize="10" guides="1" tooltips="1" connect="1" arrows="1" fold="1" page="1" pageScale="1" pageWidth="850" pageHeight="1100" math="0" shadow="0">
      <root>
        <mxCell id="0" />
        <mxCell id="1" parent="0" />
        <mxCell id="jCYH0m46AMil__QicKte-63" style="edgeStyle=orthogonalEdgeStyle;rounded=0;orthogonalLoop=1;jettySize=auto;html=1;exitX=1;exitY=0.5;exitDx=0;exitDy=0;entryX=0;entryY=0.5;entryDx=0;entryDy=0;endArrow=none;endFill=0;" edge="1" parent="1">
          <mxGeometry relative="1" as="geometry">
            <mxPoint x="440" y="151" as="sourcePoint" />
            <mxPoint x="730" y="156" as="targetPoint" />
            <Array as="points">
              <mxPoint x="440" y="148" />
              <mxPoint x="730" y="148" />
            </Array>
          </mxGeometry>
        </mxCell>
        <mxCell id="jCYH0m46AMil__QicKte-1" value="Docente universitari" style="swimlane;fontStyle=1;align=center;verticalAlign=top;childLayout=stackLayout;horizontal=1;startSize=26;horizontalStack=0;resizeParent=1;resizeParentMax=0;resizeLast=0;collapsible=1;marginBottom=0;whiteSpace=wrap;html=1;" vertex="1" parent="1">
          <mxGeometry x="180" y="74" width="260" height="158" as="geometry" />
        </mxCell>
        <mxCell id="jCYH0m46AMil__QicKte-3" value="" style="line;strokeWidth=1;fillColor=none;align=left;verticalAlign=middle;spacingTop=-1;spacingLeft=3;spacingRight=3;rotatable=0;labelPosition=right;points=[];portConstraint=eastwest;strokeColor=inherit;" vertex="1" parent="jCYH0m46AMil__QicKte-1">
          <mxGeometry y="26" width="260" height="8" as="geometry" />
        </mxCell>
        <mxCell id="jCYH0m46AMil__QicKte-2" value="&lt;div&gt;nome: stringa&lt;/div&gt;&lt;div&gt;cognome: stringa&lt;br&gt;&lt;/div&gt;&lt;div&gt;luogo: stringa&lt;/div&gt;&lt;div&gt;data nascirta: date&lt;/div&gt;&lt;div&gt;matricola: MatricolaUniversitÃ &lt;br&gt;&lt;/div&gt;posizione universitaria: PosizioneUniersita" style="text;strokeColor=none;fillColor=none;align=left;verticalAlign=top;spacingLeft=4;spacingRight=4;overflow=hidden;rotatable=0;points=[[0,0.5],[1,0.5]];portConstraint=eastwest;whiteSpace=wrap;html=1;" vertex="1" parent="jCYH0m46AMil__QicKte-1">
          <mxGeometry y="34" width="260" height="124" as="geometry" />
        </mxCell>
        <mxCell id="jCYH0m46AMil__QicKte-21" style="edgeStyle=orthogonalEdgeStyle;rounded=0;orthogonalLoop=1;jettySize=auto;html=1;exitX=0.5;exitY=1;exitDx=0;exitDy=0;endArrow=none;endFill=0;" edge="1" parent="1" source="jCYH0m46AMil__QicKte-5">
          <mxGeometry relative="1" as="geometry">
            <mxPoint x="829.9999999999999" y="280" as="targetPoint" />
          </mxGeometry>
        </mxCell>
        <mxCell id="jCYH0m46AMil__QicKte-5" value="Progetto" style="swimlane;fontStyle=1;align=center;verticalAlign=top;childLayout=stackLayout;horizontal=1;startSize=26;horizontalStack=0;resizeParent=1;resizeParentMax=0;resizeLast=0;collapsible=1;marginBottom=0;whiteSpace=wrap;html=1;" vertex="1" parent="1">
          <mxGeometry x="730" y="90" width="200" height="118" as="geometry" />
        </mxCell>
        <mxCell id="jCYH0m46AMil__QicKte-6" value="&lt;div&gt;nome: stringa&lt;/div&gt;&lt;div&gt;acronimo: stringa&lt;/div&gt;&lt;div&gt;data inizio: date&lt;/div&gt;&lt;div&gt;data fine: date&lt;br&gt;&lt;/div&gt;&lt;div&gt;&lt;br&gt;&lt;/div&gt;" style="text;strokeColor=none;fillColor=none;align=left;verticalAlign=top;spacingLeft=4;spacingRight=4;overflow=hidden;rotatable=0;points=[[0,0.5],[1,0.5]];portConstraint=eastwest;whiteSpace=wrap;html=1;" vertex="1" parent="jCYH0m46AMil__QicKte-5">
          <mxGeometry y="26" width="200" height="84" as="geometry" />
        </mxCell>
        <mxCell id="jCYH0m46AMil__QicKte-7" value="" style="line;strokeWidth=1;fillColor=none;align=left;verticalAlign=middle;spacingTop=-1;spacingLeft=3;spacingRight=3;rotatable=0;labelPosition=right;points=[];portConstraint=eastwest;strokeColor=inherit;" vertex="1" parent="jCYH0m46AMil__QicKte-5">
          <mxGeometry y="110" width="200" height="8" as="geometry" />
        </mxCell>
        <mxCell id="jCYH0m46AMil__QicKte-9" value="Work Package" style="swimlane;fontStyle=1;align=center;verticalAlign=top;childLayout=stackLayout;horizontal=1;startSize=26;horizontalStack=0;resizeParent=1;resizeParentMax=0;resizeLast=0;collapsible=1;marginBottom=0;whiteSpace=wrap;html=1;" vertex="1" parent="1">
          <mxGeometry x="730" y="282" width="200" height="98" as="geometry" />
        </mxCell>
        <mxCell id="jCYH0m46AMil__QicKte-10" value="&lt;div&gt;nome: stringa&lt;/div&gt;&lt;div&gt;data inizio: date&lt;/div&gt;&lt;div&gt;data fine: date&lt;br&gt;&lt;/div&gt;" style="text;strokeColor=none;fillColor=none;align=left;verticalAlign=top;spacingLeft=4;spacingRight=4;overflow=hidden;rotatable=0;points=[[0,0.5],[1,0.5]];portConstraint=eastwest;whiteSpace=wrap;html=1;" vertex="1" parent="jCYH0m46AMil__QicKte-9">
          <mxGeometry y="26" width="200" height="64" as="geometry" />
        </mxCell>
        <mxCell id="jCYH0m46AMil__QicKte-11" value="" style="line;strokeWidth=1;fillColor=none;align=left;verticalAlign=middle;spacingTop=-1;spacingLeft=3;spacingRight=3;rotatable=0;labelPosition=right;points=[];portConstraint=eastwest;strokeColor=inherit;" vertex="1" parent="jCYH0m46AMil__QicKte-9">
          <mxGeometry y="90" width="200" height="8" as="geometry" />
        </mxCell>
        <mxCell id="jCYH0m46AMil__QicKte-22" value="0..*" style="text;html=1;align=center;verticalAlign=middle;resizable=0;points=[];autosize=1;strokeColor=none;fillColor=none;" vertex="1" parent="1">
          <mxGeometry x="835" y="208" width="40" height="30" as="geometry" />
        </mxCell>
        <mxCell id="jCYH0m46AMil__QicKte-23" value="0..*" style="text;html=1;align=center;verticalAlign=middle;resizable=0;points=[];autosize=1;strokeColor=none;fillColor=none;" vertex="1" parent="1">
          <mxGeometry x="835" y="252" width="40" height="30" as="geometry" />
        </mxCell>
        <mxCell id="jCYH0m46AMil__QicKte-26" value="WorkPackage_riferimnento" style="text;html=1;align=center;verticalAlign=middle;resizable=0;points=[];autosize=1;strokeColor=none;fillColor=none;" vertex="1" parent="1">
          <mxGeometry x="870" y="232" width="170" height="30" as="geometry" />
        </mxCell>
        <mxCell id="jCYH0m46AMil__QicKte-48" style="edgeStyle=orthogonalEdgeStyle;rounded=0;orthogonalLoop=1;jettySize=auto;html=1;exitX=0.5;exitY=0;exitDx=0;exitDy=0;entryX=0.5;entryY=0;entryDx=0;entryDy=0;endArrow=none;endFill=0;" edge="1" parent="1" target="jCYH0m46AMil__QicKte-42">
          <mxGeometry relative="1" as="geometry">
            <mxPoint x="130" y="480" as="sourcePoint" />
          </mxGeometry>
        </mxCell>
        <mxCell id="jCYH0m46AMil__QicKte-39" value="impegno_istituzionale" style="swimlane;fontStyle=1;align=center;verticalAlign=top;childLayout=stackLayout;horizontal=1;startSize=26;horizontalStack=0;resizeParent=1;resizeParentMax=0;resizeLast=0;collapsible=1;marginBottom=0;whiteSpace=wrap;html=1;" vertex="1" parent="1">
          <mxGeometry x="30" y="470" width="220" height="78" as="geometry" />
        </mxCell>
        <mxCell id="jCYH0m46AMil__QicKte-40" value="&lt;div&gt;motivazione: string&lt;br&gt;&lt;/div&gt;" style="text;strokeColor=none;fillColor=none;align=left;verticalAlign=top;spacingLeft=4;spacingRight=4;overflow=hidden;rotatable=0;points=[[0,0.5],[1,0.5]];portConstraint=eastwest;whiteSpace=wrap;html=1;" vertex="1" parent="jCYH0m46AMil__QicKte-39">
          <mxGeometry y="26" width="220" height="44" as="geometry" />
        </mxCell>
        <mxCell id="jCYH0m46AMil__QicKte-41" value="" style="line;strokeWidth=1;fillColor=none;align=left;verticalAlign=middle;spacingTop=-1;spacingLeft=3;spacingRight=3;rotatable=0;labelPosition=right;points=[];portConstraint=eastwest;strokeColor=inherit;" vertex="1" parent="jCYH0m46AMil__QicKte-39">
          <mxGeometry y="70" width="220" height="8" as="geometry" />
        </mxCell>
        <mxCell id="jCYH0m46AMil__QicKte-78" style="edgeStyle=orthogonalEdgeStyle;rounded=0;orthogonalLoop=1;jettySize=auto;html=1;exitX=0.5;exitY=1;exitDx=0;exitDy=0;entryX=0.544;entryY=-0.05;entryDx=0;entryDy=0;entryPerimeter=0;endArrow=none;endFill=0;" edge="1" parent="1" source="jCYH0m46AMil__QicKte-42" target="jCYH0m46AMil__QicKte-74">
          <mxGeometry relative="1" as="geometry" />
        </mxCell>
        <mxCell id="jCYH0m46AMil__QicKte-42" value="assenza" style="swimlane;fontStyle=1;align=center;verticalAlign=top;childLayout=stackLayout;horizontal=1;startSize=26;horizontalStack=0;resizeParent=1;resizeParentMax=0;resizeLast=0;collapsible=1;marginBottom=0;whiteSpace=wrap;html=1;" vertex="1" parent="1">
          <mxGeometry x="260" y="470" width="220" height="78" as="geometry" />
        </mxCell>
        <mxCell id="jCYH0m46AMil__QicKte-43" value="&lt;div&gt;motivazione: string&lt;br&gt;&lt;/div&gt;" style="text;strokeColor=none;fillColor=none;align=left;verticalAlign=top;spacingLeft=4;spacingRight=4;overflow=hidden;rotatable=0;points=[[0,0.5],[1,0.5]];portConstraint=eastwest;whiteSpace=wrap;html=1;" vertex="1" parent="jCYH0m46AMil__QicKte-42">
          <mxGeometry y="26" width="220" height="44" as="geometry" />
        </mxCell>
        <mxCell id="jCYH0m46AMil__QicKte-44" value="" style="line;strokeWidth=1;fillColor=none;align=left;verticalAlign=middle;spacingTop=-1;spacingLeft=3;spacingRight=3;rotatable=0;labelPosition=right;points=[];portConstraint=eastwest;strokeColor=inherit;" vertex="1" parent="jCYH0m46AMil__QicKte-42">
          <mxGeometry y="70" width="220" height="8" as="geometry" />
        </mxCell>
        <mxCell id="jCYH0m46AMil__QicKte-49" style="edgeStyle=orthogonalEdgeStyle;rounded=0;orthogonalLoop=1;jettySize=auto;html=1;exitX=0.5;exitY=0;exitDx=0;exitDy=0;endArrow=none;endFill=0;" edge="1" parent="1">
          <mxGeometry relative="1" as="geometry">
            <mxPoint x="370" y="449" as="targetPoint" />
            <mxPoint x="610" y="469" as="sourcePoint" />
            <Array as="points">
              <mxPoint x="610" y="449" />
            </Array>
          </mxGeometry>
        </mxCell>
        <mxCell id="jCYH0m46AMil__QicKte-45" value="impegno_progettuale" style="swimlane;fontStyle=1;align=center;verticalAlign=top;childLayout=stackLayout;horizontal=1;startSize=26;horizontalStack=0;resizeParent=1;resizeParentMax=0;resizeLast=0;collapsible=1;marginBottom=0;whiteSpace=wrap;html=1;" vertex="1" parent="1">
          <mxGeometry x="500" y="470" width="220" height="78" as="geometry" />
        </mxCell>
        <mxCell id="jCYH0m46AMil__QicKte-46" value="&lt;div&gt;motivazione: string&lt;br&gt;&lt;/div&gt;" style="text;strokeColor=none;fillColor=none;align=left;verticalAlign=top;spacingLeft=4;spacingRight=4;overflow=hidden;rotatable=0;points=[[0,0.5],[1,0.5]];portConstraint=eastwest;whiteSpace=wrap;html=1;" vertex="1" parent="jCYH0m46AMil__QicKte-45">
          <mxGeometry y="26" width="220" height="44" as="geometry" />
        </mxCell>
        <mxCell id="jCYH0m46AMil__QicKte-47" value="" style="line;strokeWidth=1;fillColor=none;align=left;verticalAlign=middle;spacingTop=-1;spacingLeft=3;spacingRight=3;rotatable=0;labelPosition=right;points=[];portConstraint=eastwest;strokeColor=inherit;" vertex="1" parent="jCYH0m46AMil__QicKte-45">
          <mxGeometry y="70" width="220" height="8" as="geometry" />
        </mxCell>
        <mxCell id="jCYH0m46AMil__QicKte-51" value="{disjoint,complete}" style="text;html=1;align=center;verticalAlign=middle;resizable=0;points=[];autosize=1;strokeColor=none;fillColor=none;" vertex="1" parent="1">
          <mxGeometry x="30" y="430" width="120" height="30" as="geometry" />
        </mxCell>
        <mxCell id="jCYH0m46AMil__QicKte-52" value="{disjoint,complete}" style="text;html=1;align=center;verticalAlign=middle;resizable=0;points=[];autosize=1;strokeColor=none;fillColor=none;" vertex="1" parent="1">
          <mxGeometry x="400" y="420" width="120" height="30" as="geometry" />
        </mxCell>
        <mxCell id="jCYH0m46AMil__QicKte-53" value="{disjoint,complete}" style="text;html=1;align=center;verticalAlign=middle;resizable=0;points=[];autosize=1;strokeColor=none;fillColor=none;" vertex="1" parent="1">
          <mxGeometry x="1590" y="960" width="120" height="30" as="geometry" />
        </mxCell>
        <mxCell id="jCYH0m46AMil__QicKte-59" style="edgeStyle=orthogonalEdgeStyle;rounded=0;orthogonalLoop=1;jettySize=auto;html=1;exitX=0.5;exitY=0;exitDx=0;exitDy=0;entryX=0.5;entryY=1;entryDx=0;entryDy=0;endArrow=block;endFill=0;" edge="1" parent="1">
          <mxGeometry relative="1" as="geometry">
            <mxPoint x="307" y="280" as="sourcePoint" />
            <mxPoint x="307" y="232" as="targetPoint" />
          </mxGeometry>
        </mxCell>
        <mxCell id="jCYH0m46AMil__QicKte-60" style="edgeStyle=orthogonalEdgeStyle;rounded=0;orthogonalLoop=1;jettySize=auto;html=1;entryX=0.5;entryY=1;entryDx=0;entryDy=0;endArrow=block;endFill=0;" edge="1" parent="1" target="jCYH0m46AMil__QicKte-55">
          <mxGeometry relative="1" as="geometry">
            <mxPoint x="310" y="450" as="sourcePoint" />
          </mxGeometry>
        </mxCell>
        <mxCell id="jCYH0m46AMil__QicKte-55" value="Impegno" style="swimlane;fontStyle=1;align=center;verticalAlign=top;childLayout=stackLayout;horizontal=1;startSize=26;horizontalStack=0;resizeParent=1;resizeParentMax=0;resizeLast=0;collapsible=1;marginBottom=0;whiteSpace=wrap;html=1;" vertex="1" parent="1">
          <mxGeometry x="230" y="280" width="160" height="78" as="geometry" />
        </mxCell>
        <mxCell id="jCYH0m46AMil__QicKte-56" value="&lt;div&gt;giorno impegno: date&lt;/div&gt;&lt;div&gt;durata_ore: [24]&lt;br&gt;&lt;/div&gt;" style="text;strokeColor=none;fillColor=none;align=left;verticalAlign=top;spacingLeft=4;spacingRight=4;overflow=hidden;rotatable=0;points=[[0,0.5],[1,0.5]];portConstraint=eastwest;whiteSpace=wrap;html=1;" vertex="1" parent="jCYH0m46AMil__QicKte-55">
          <mxGeometry y="26" width="160" height="44" as="geometry" />
        </mxCell>
        <mxCell id="jCYH0m46AMil__QicKte-57" value="" style="line;strokeWidth=1;fillColor=none;align=left;verticalAlign=middle;spacingTop=-1;spacingLeft=3;spacingRight=3;rotatable=0;labelPosition=right;points=[];portConstraint=eastwest;strokeColor=inherit;" vertex="1" parent="jCYH0m46AMil__QicKte-55">
          <mxGeometry y="70" width="160" height="8" as="geometry" />
        </mxCell>
        <mxCell id="jCYH0m46AMil__QicKte-61" value="registrazione_impegno" style="text;html=1;align=center;verticalAlign=middle;resizable=0;points=[];autosize=1;strokeColor=none;fillColor=none;" vertex="1" parent="1">
          <mxGeometry x="320" y="240" width="140" height="30" as="geometry" />
        </mxCell>
        <mxCell id="jCYH0m46AMil__QicKte-62" value="tipo_impegno" style="text;html=1;align=center;verticalAlign=middle;resizable=0;points=[];autosize=1;strokeColor=none;fillColor=none;" vertex="1" parent="1">
          <mxGeometry x="320" y="370" width="100" height="30" as="geometry" />
        </mxCell>
        <mxCell id="jCYH0m46AMil__QicKte-71" value="progetti_docenti" style="text;html=1;align=center;verticalAlign=middle;resizable=0;points=[];autosize=1;strokeColor=none;fillColor=none;" vertex="1" parent="1">
          <mxGeometry x="540" y="110" width="110" height="30" as="geometry" />
        </mxCell>
        <mxCell id="jCYH0m46AMil__QicKte-72" value="0..*" style="text;html=1;align=center;verticalAlign=middle;resizable=0;points=[];autosize=1;strokeColor=none;fillColor=none;" vertex="1" parent="1">
          <mxGeometry x="690" y="110" width="40" height="30" as="geometry" />
        </mxCell>
        <mxCell id="jCYH0m46AMil__QicKte-73" value="1..1" style="text;html=1;align=center;verticalAlign=middle;resizable=0;points=[];autosize=1;strokeColor=none;fillColor=none;" vertex="1" parent="1">
          <mxGeometry x="440" y="110" width="40" height="30" as="geometry" />
        </mxCell>
        <mxCell id="jCYH0m46AMil__QicKte-74" value="Malattia" style="swimlane;fontStyle=1;align=center;verticalAlign=top;childLayout=stackLayout;horizontal=1;startSize=26;horizontalStack=0;resizeParent=1;resizeParentMax=0;resizeLast=0;collapsible=1;marginBottom=0;whiteSpace=wrap;html=1;" vertex="1" parent="1">
          <mxGeometry x="280" y="590" width="160" height="60" as="geometry" />
        </mxCell>
        <mxCell id="jCYH0m46AMil__QicKte-75" value="durata: [24]" style="text;strokeColor=none;fillColor=none;align=left;verticalAlign=top;spacingLeft=4;spacingRight=4;overflow=hidden;rotatable=0;points=[[0,0.5],[1,0.5]];portConstraint=eastwest;whiteSpace=wrap;html=1;" vertex="1" parent="jCYH0m46AMil__QicKte-74">
          <mxGeometry y="26" width="160" height="26" as="geometry" />
        </mxCell>
        <mxCell id="jCYH0m46AMil__QicKte-76" value="" style="line;strokeWidth=1;fillColor=none;align=left;verticalAlign=middle;spacingTop=-1;spacingLeft=3;spacingRight=3;rotatable=0;labelPosition=right;points=[];portConstraint=eastwest;strokeColor=inherit;" vertex="1" parent="jCYH0m46AMil__QicKte-74">
          <mxGeometry y="52" width="160" height="8" as="geometry" />
        </mxCell>
        <mxCell id="jCYH0m46AMil__QicKte-79" value="&amp;nbsp;" style="text;whiteSpace=wrap;html=1;" vertex="1" parent="1">
          <mxGeometry x="-50" y="190" width="40" height="40" as="geometry" />
        </mxCell>
        <mxCell id="jCYH0m46AMil__QicKte-80" value="&amp;nbsp;" style="text;whiteSpace=wrap;html=1;" vertex="1" parent="1">
          <mxGeometry x="-630" y="280" width="40" height="40" as="geometry" />
        </mxCell>
      </root>
    </mxGraphModel>
  </diagram>
</mxfile>
